<svg width="133" height="126" viewBox="0 0 133 126" fill="none" xmlns="http://www.w3.org/2000/svg">
<g id="Exit">
<path d="M85.1146 116.787L84.8001 115.366L84.6427 68.8012L84.8001 68.1698V65.8021C80.8667 69.5905 75.9893 72.4317 70.1679 73.3788C68.1225 73.6945 66.2344 72.2739 65.9198 70.2219C65.4478 68.1698 66.8638 66.1178 69.0666 65.8021C78.192 64.2237 84.8002 56.4892 84.8002 47.0183C84.8002 45.1242 86.2162 43.5457 88.1042 43.23C95.3417 42.4408 102.264 44.335 107.929 48.7547C113.435 53.1744 117.054 59.4883 117.841 66.5914C118.156 69.2748 118.156 71.9582 117.683 74.6416C117.369 76.6936 115.323 77.9564 113.121 77.6407C111.39 77.3249 110.131 75.7465 110.131 73.8523V73.2209C110.289 72.116 110.446 71.0111 110.446 69.9062C110.446 69.5115 110.406 69.1169 110.367 68.7223C110.328 68.3277 110.288 67.9331 110.288 67.5385C109.659 62.4874 107.142 57.9098 103.208 54.7528C102.264 54.1215 101.32 53.4901 100.376 53.0165V75.5886C100.691 80.0084 101.635 85.6909 104.309 90.2684C108.4 97.5294 116.424 99.4235 116.582 99.4235C119.256 100.055 120.83 102.738 120.358 105.422C119.728 108.105 117.054 109.684 114.379 109.21C114.354 109.202 114.295 109.186 114.206 109.162C112.639 108.739 101.612 105.767 95.656 95.1617C95.4463 94.8459 95.2364 94.3898 95.0266 93.9337C94.9217 93.7058 94.8168 93.4779 94.712 93.2675V115.366C94.712 116.787 94.0827 118.049 93.296 118.997C93.296 118.997 87.8067 122.669 85.1146 116.787Z" fill="white"/>
<path d="M92.5094 38.9682C87.9467 38.9682 84.1706 35.3377 84.1706 30.7601C84.1706 26.1825 87.9467 22.3942 92.5094 22.3942C97.0722 22.3942 100.691 26.1825 100.691 30.7601C100.691 35.3377 97.0722 38.9682 92.5094 38.9682Z" fill="white"/>
<path fill-rule="evenodd" clip-rule="evenodd" d="M132.824 16.7654C132.824 7.50612 125.342 0 116.113 0H17.2978C8.06848 0 0.586599 7.50612 0.586599 16.7654V109.235C0.586599 118.494 8.06848 126 17.2978 126H116.113C125.342 126 132.824 118.494 132.824 109.235V16.7654ZM116.113 2.96316C123.711 2.96316 129.871 9.14263 129.871 16.7654V109.235C129.871 116.857 123.711 123.037 116.113 123.037H57.0183C57.8371 122.048 58.3295 120.777 58.3295 119.39V17.4487C58.3295 14.2946 55.7809 11.7377 52.637 11.7377H4.48144C6.48495 6.60114 11.4679 2.96316 17.2978 2.96316H116.113ZM32.1856 56.1309C32.1856 57.1208 31.8027 58.0664 31.1031 58.7609C31.0958 58.7682 27.2004 62.595 24.5273 65.2103H44.2621C46.3166 65.2103 47.9734 66.8799 47.9734 68.9262C47.9734 70.9726 46.3166 72.6422 44.2621 72.6422H24.3212C26.8322 75.1983 30.6613 79.0916 30.6613 79.0916C31.3461 79.7713 31.7438 80.7021 31.7512 81.6921C31.7512 82.6894 31.3756 83.6276 30.6687 84.3294C29.2254 85.7848 26.869 85.7922 25.4331 84.359L10.1828 68.9706L11.1843 67.9806L25.8602 53.5083C26.5376 52.8064 27.4802 52.4223 28.4596 52.4223H28.4743C29.461 52.4223 30.3962 52.799 31.1031 53.5083C31.8027 54.2101 32.1856 55.1409 32.1856 56.1309Z" fill="white"/>
</g>
</svg>
