<svg width="118" height="124" viewBox="0 0 118 124" fill="none" xmlns="http://www.w3.org/2000/svg">
<g id="Information icon">
<path id="path3173" d="M58.0005 115.209C65.0551 115.209 71.9072 113.904 78.4231 111.423C80.8855 112.316 112.087 123.699 112.087 123.699C113.7 124.281 115.508 123.768 116.556 122.412C117.095 121.703 117.37 120.868 117.37 120.022C117.37 119.241 117.135 118.456 116.665 117.78C116.665 117.78 103.998 99.7222 101.138 95.6434C110.301 85.2297 115.363 72.0389 115.363 58.0744C115.363 26.5691 89.6359 0.936096 58.0005 0.936096C26.3651 0.936096 0.630859 26.5691 0.630859 58.0744C0.630859 89.5796 26.3651 115.209 58.0005 115.209ZM58.0005 8.76812C85.2969 8.76812 107.502 30.8901 107.502 58.0744C107.502 71.0735 102.476 83.3386 93.335 92.6097C92.5865 93.3654 92.2141 94.3598 92.2141 95.3542C92.2141 96.1352 92.4383 96.9126 92.9192 97.5924C92.9192 97.5924 98.1514 105.048 103.069 112.074C92.7058 108.292 79.7971 103.588 79.7971 103.588C78.8715 103.244 77.8518 103.269 76.9406 103.645C70.9346 106.126 64.5634 107.381 58.0005 107.381C30.7006 107.381 8.4918 85.2622 8.4918 58.0744C8.4918 30.8901 30.7006 8.76812 58.0005 8.76812Z" fill="#FED362"/>
<path id="path3177" d="M43.5979 50.9355H51.9832V88.6348C51.9832 88.9783 52.2616 89.2567 52.6015 89.2567H64.2953C64.6388 89.2567 64.9244 88.9783 64.9244 88.6348V43.5989C64.9244 43.259 64.6388 42.9733 64.2953 42.9733H43.5979C43.2508 42.9733 42.9688 43.259 42.9688 43.5989V50.3172C42.9688 50.6571 43.2508 50.9355 43.5979 50.9355Z" fill="#FED362"/>
<path id="path3181" d="M53.4219 34.9815C54.8249 35.9397 56.5027 36.4134 58.4697 36.4134C60.4657 36.4134 62.176 35.9397 63.5898 34.9815C64.9964 34.0233 65.7015 32.8445 65.7015 31.456C65.7015 30.1109 64.9964 28.961 63.5898 27.992C62.176 27.041 60.4657 26.5637 58.4697 26.5637C56.4737 26.5637 54.7779 27.0338 53.3858 27.9667C52.0009 28.9068 51.3066 30.0711 51.3066 31.456C51.3066 32.8445 52.0117 34.0233 53.4219 34.9815Z" fill="#FED362"/>
</g>
</svg>
