<svg width="134" height="123" viewBox="0 0 134 123" fill="none" xmlns="http://www.w3.org/2000/svg">
<g id="Lost items icon">
<path id="path3189" d="M11.3579 50.1292H53.6163C59.6142 50.1292 64.4742 45.2691 64.4742 39.2713V38.114H64.5328C71.1484 38.114 83.5468 39.459 84.841 27.5689H110.412L110.416 45.8204V45.84C109.544 48.0061 107.433 49.5466 104.958 49.5466C103.01 49.5466 100.141 45.4685 98.819 42.5204C98.6978 42.2546 98.4554 42.0943 98.2677 41.8831C98.1308 41.7463 98.0605 41.5781 97.9001 41.4687C97.4622 41.1481 96.9618 40.9604 96.3987 40.9447C96.1876 40.9447 95.9843 40.9447 95.7653 40.9917C95.6989 41.0073 95.6754 41.0699 95.6089 41.0855C95.4877 41.1246 95.3587 41.109 95.2414 41.1676C94.9716 41.2888 94.8113 41.5312 94.6041 41.715C94.4633 41.844 94.2913 41.93 94.1935 42.0825C93.869 42.5283 93.6618 43.0522 93.6461 43.6074C93.6461 43.6152 93.6383 43.623 93.6383 43.6309V43.6426C93.6383 43.8303 93.6657 44.0297 93.7126 44.2213L110.76 120.825C111.037 122.044 112.128 122.924 113.383 122.936C114.642 122.952 115.745 122.087 116.034 120.871C118.681 109.928 130.876 59.3097 133.113 46.4304C133.336 45.5272 133.5 44.6044 133.5 43.6309C133.5 43.2555 133.422 42.9075 133.281 42.583C132.871 41.6094 131.92 40.9252 130.787 40.9252C129.445 40.9252 128.374 41.93 128.167 43.2281C128.143 43.3533 128.093 43.4784 128.081 43.6152C128.081 43.6426 128.065 43.6973 128.065 43.7286C128.014 46.9426 125.403 49.5466 122.189 49.5466C119.718 49.5466 117.61 48.0256 116.73 45.8712C116.73 45.8556 116.738 45.8439 116.738 45.8204L116.719 13.587C116.719 5.59119 111.878 0 104.954 0C101.806 0 98.8463 1.23163 96.6294 3.45638C94.4008 5.67722 93.1848 8.63312 93.1848 11.7806C93.1848 13.5205 94.5845 14.9359 96.3362 14.9359C98.0878 14.9359 99.4915 13.5205 99.4915 11.7806C99.4915 10.3183 100.062 8.95373 101.091 7.92151C102.123 6.8932 103.495 6.32235 104.954 6.32235C108.375 6.32235 110.412 9.03584 110.412 13.587V23.3618H84.841C83.5703 11.2567 71.1523 12.8089 64.5328 12.8089C64.5094 12.8089 64.4977 12.8246 64.4742 12.8246V11.6594C64.4742 5.66548 59.6142 0.801529 53.6163 0.801529H11.3579C5.37177 0.801529 0.5 5.66548 0.5 11.6594V39.2713C0.5 45.2691 5.37177 50.1292 11.3579 50.1292ZM28.4169 6.02129C30.2506 5.57165 32.014 5.34487 33.707 5.34487C35.8184 5.34487 37.6286 5.59119 39.1379 6.09167C40.6354 6.59605 41.8787 7.27246 42.8719 8.13264C43.8611 9.00065 44.5805 9.99377 45.0458 11.1198C45.5071 12.2498 45.7378 13.4384 45.7378 14.6935C45.7378 16.019 45.5345 17.2115 45.1161 18.2672C44.7095 19.3189 44.1778 20.2691 43.517 21.0862C42.8523 21.9151 42.0899 22.6189 41.2258 23.2132C40.3695 23.8036 39.5093 24.3119 38.653 24.742L36.2836 25.9189L35.8535 31.9402H29.3592L28.8118 23.6668L32.5184 21.6727C33.5584 21.1019 34.4421 20.5584 35.1537 20.0384C35.8731 19.5223 36.4439 18.9983 36.8701 18.4822C37.308 17.9622 37.6169 17.4305 37.8163 16.8674C38.0079 16.3122 38.1057 15.714 38.1057 15.0688C38.1057 13.9584 37.6873 13.0005 36.8506 12.1911C36.0099 11.3896 34.7822 10.983 33.1635 10.983C31.8029 10.983 30.3953 11.3192 28.9447 11.9761C27.498 12.6447 26.2195 13.4228 25.1091 14.3221L22.0945 8.68004C24.4639 7.35066 26.5636 6.4631 28.4169 6.02129ZM37.1946 42.235C36.9444 42.8293 36.5964 43.3454 36.1429 43.7951C35.7089 44.2369 35.1849 44.5849 34.5945 44.839C34.0002 45.0932 33.3629 45.2183 32.6826 45.2183C31.3219 45.2183 30.1646 44.7413 29.2145 43.7951C28.2644 42.845 27.7952 41.6915 27.7952 40.327C27.7952 38.9702 28.2644 37.809 29.2145 36.8589C30.1646 35.9088 31.3219 35.4357 32.6826 35.4357C33.3629 35.4357 34.0002 35.5647 34.5945 35.811C35.1849 36.0651 35.7089 36.4092 36.1429 36.8667C36.5964 37.3046 36.9444 37.8285 37.1946 38.4228C37.4449 39.0132 37.5739 39.6506 37.5739 40.327C37.5739 41.0112 37.4449 41.6485 37.1946 42.235ZM72.5521 20.2104C75.4533 20.2104 77.7914 22.5642 77.7914 25.4693C77.7914 28.3665 75.4533 30.7125 72.5521 30.7125C69.6548 30.7125 67.3167 28.3665 67.3167 25.4693C67.3167 22.5642 69.6548 20.2104 72.5521 20.2104Z" fill="#FED362"/>
<path id="path3193" d="M54.5269 96.2618L86.9597 96.5863C89.1453 96.6176 90.9165 94.8581 90.9361 92.6685C90.9556 90.4907 89.2157 88.7039 87.0301 88.6843L76.2074 88.6648L54.4017 88.4145C53.6628 88.4067 53.0685 87.8124 53.088 87.0852C53.0958 86.3501 53.6862 85.7714 54.4213 85.791L81.4819 86.0099C83.6714 86.0334 85.4505 84.2817 85.4856 82.0922C85.5013 79.9065 83.7418 78.108 81.5562 78.0962C81.5562 78.0962 44.0092 77.8108 42.586 77.7287C41.1627 77.6583 40.6349 76.8568 41.976 75.6525C43.3054 74.4326 44.8694 73.7289 46.144 72.6223C46.144 72.6223 59.3713 75.7307 60.7124 66.4212C60.7124 66.4212 60.6772 65.6314 60.6772 65.4515C60.6967 64.7282 60.1493 64.1222 59.4221 64.1065C59.4221 64.1065 53.5455 64.388 47.3561 62.7811C43.3718 62.9883 41.5459 63.9423 35.5051 65.0645C33.7613 65.5532 31.2902 66.3274 29.3939 67.5825L16.5068 76.5714C16.5068 76.5714 12.2488 80.4539 9.70739 80.4539C8.15124 80.4539 1.01563 78.542 1.01563 78.542V93.5639L9.41806 96.9264L1.00781 100.504V117.633L76.1527 117.665C78.3461 117.684 80.1251 115.925 80.1486 113.731C80.1799 111.546 78.4087 109.759 76.2309 109.739L54.4213 109.489C53.6706 109.485 53.1076 108.891 53.1154 108.156C53.1154 107.436 53.698 106.834 54.4487 106.854L81.4936 107.088C83.6793 107.104 85.4661 105.36 85.4856 103.171C85.5091 100.989 83.7536 99.1864 81.564 99.1746L54.4956 98.9088C53.7762 98.897 53.1662 98.2988 53.1662 97.5716C53.1779 96.8365 53.8035 96.25 54.5269 96.2618Z" fill="#FED362"/>
</g>
</svg>
