<svg width="134" height="126" viewBox="0 0 134 126" fill="none" xmlns="http://www.w3.org/2000/svg">
<path id="path3091" d="M20.7676 126H113.587C124.783 126 133.847 116.944 133.847 105.76V51.6137C133.847 40.4293 124.783 31.3579 113.587 31.3579H100.262C99.3093 13.9129 84.875 0 67.1752 0C49.5028 0 35.0215 13.9129 34.065 31.3579H20.7676C9.56357 31.3579 0.5 40.4293 0.5 51.6137V105.76C0.5 116.944 9.56357 126 20.7676 126ZM67.1752 9.31446C79.7239 9.31446 90.0066 19.0562 90.9593 31.3579H43.3912C44.3321 19.0562 54.6227 9.31446 67.1752 9.31446Z" fill="#D14538"/>
</svg>
